# xmcd
#
# Track frame offsets: 
#        150
#        24130
#        41695
#        64312
#        93312
#        122300
#        144325
#        165555
#        185572
#        208547
#
# Disc length: 3040 seconds
#
# Revision: 0
# Processed by: cddbd v1.5.2PL0 Copyright (c) Steve Scherf et al.
# Submitted via: ExactAudioCopy v1.0b3
#
DISCID=7d0bde0a
DTITLE=Ngoc Son - Yeu
DYEAR=1995
DGENRE=
TTITLE0=Thoang mot giac mo
TTITLE1=Da Lat chieu mo
TTITLE2=Yeu
TTITLE3=Ky niem nao buon
TTITLE4=Hue dep tinh tho
TTITLE5=Nhat nang
TTITLE6=So phan
TTITLE7=Mon qua ky niem
TTITLE8=Em gai Ha Tien
TTITLE9=Sau lan hen cuoi
EXTD=
EXTT0=
EXTT1=
EXTT2=
EXTT3=
EXTT4=
EXTT5=
EXTT6=
EXTT7=
EXTT8=
EXTT9=
PLAYORDER=
